:FULLY-SPECIFIED
:FORCE-ALL-JOINTS-BE-3DOF
:DEGREES
747
root 4.01254 17.3023 14.3144 -173.682 -6.99998 182.455
lfemur -32.0069 2.76786 -15.4504
ltibia 36.9427 0 0
lfoot -13.8275 -1.01832 0
ltoes 14.2335 0 0
rfemur -25.3654 -32.7969 7.71274
rtibia 109.459 0 0
rfoot 25.8144 3.23163 0
rtoes 30.3952 0 0
lowerback 1.99073 6.82753 -1.52219
upperback -1.5646 9.01806 -2.56693
thorax -2.50721 4.51988 -2.15182
lowerneck -6.64797 -8.58082 -1.72526
upperneck -1.66284 -11.3528 4.86598
head 1.00093 -5.59327 1.45614
lclavicle 2.05114e-15 -3.55782e-14 0
lhumerus -54.4298 -14.4051 71.2513
lradius 55.0471 0 0
lwrist 16.1382 0 0
lhand -26.6191 -6.50182 0
lfingers 7.12502 0 0
lthumb -0.052261 23.4498 0
rclavicle 2.05114e-15 -3.55782e-14 0
rhumerus 13.2548 34.3772 -73.3389
rradius 88.7004 0 0
rwrist -0.443815 0 0
rhand -23.0542 -23.6319 0
rfingers 7.12502 0 0
rthumb 3.3894 -773.492 0
748
root 3.96186 17.1604 14.5004 -174.083 -4.57965 181.593
lfemur -33.4272 4.89519 -16.7084
ltibia 40.0025 0 0
lfoot -16.4473 0.547909 0
ltoes 13.8503 0 0
rfemur -25.2895 -32.8332 9.54108
rtibia 107.112 0 0
rfoot 24.8007 2.28371 0
rtoes 30.4714 0 0
lowerback 2.26858 6.66865 -1.89291
upperback -1.41375 8.79525 -2.70476
thorax -2.54242 4.41737 -2.10422
lowerneck -6.47154 -8.67316 -1.77765
upperneck -1.64193 -11.4621 5.08054
head 0.998846 -5.63799 1.53419
lclavicle -3.22725e-15 -3.23909e-14 0
lhumerus -53.829 -13.9624 73.6124
lradius 55.7128 0 0
lwrist 15.6719 0 0
lhand -27.1161 -6.74444 0
lfingers 7.12502 0 0
lthumb -0.5322 23.2091 0
rclavicle -3.22725e-15 -3.23909e-14 0
rhumerus 10.3591 36.908 -76.5009
rradius 88.5545 0 0
rwrist 0.37226 0 0
rhand -22.2758 -22.8517 0
rfingers 7.12502 0 0
rthumb 4.14104 -772.701 0
749
root 3.91118 17.0185 14.6865 -174.262 -2.14058 180.919
lfemur -34.8279 6.98686 -17.9252
ltibia 43.0365 0 0
lfoot -19.0097 2.10686 0
ltoes 13.4949 0 0
rfemur -25.2073 -32.8376 11.344
rtibia 104.73 0 0
rfoot 23.7435 1.2867 0
rtoes 30.48 0 0
lowerback 2.54195 6.50526 -2.25559
upperback -1.2653 8.56664 -2.84096
thorax -2.57687 4.31179 -2.05842
lowerneck -6.29714 -8.75984 -1.82834
upperneck -1.62227 -11.564 5.29159
head 0.996104 -5.67928 1.61106
lclavicle -8.29671e-15 -2.9186e-14 0
lhumerus -53.2074 -13.5293 75.9187
lradius 56.379 0 0
lwrist 15.2137 0 0
lhand -27.5905 -6.97897 0
lfingers 7.12502 0 0
lthumb -0.990361 22.9763 0
rclavicle -8.29671e-15 -2.9186e-14 0
rhumerus 7.44982 39.3798 -79.6169
rradius 88.4071 0 0
rwrist 1.17408 0 0
rhand -21.5164 -22.0898 0
rfingers 7.12502 0 0
rthumb 4.87434 -771.93 0
750
root 3.86051 16.8766 14.8725 -174.187 0.321585 180.486
lfemur -36.1893 9.01883 -19.0877
ltibia 45.9967 0 0
lfoot -21.4826 3.64281 0
ltoes 13.1711 0 0
rfemur -25.1158 -32.8145 13.1
rtibia 102.334 0 0
rfoot 22.6475 0.250376 0
rtoes 30.4037 0 0
lowerback 2.80556 6.34082 -2.60459
upperback -1.12145 8.33708 -2.97406
thorax -2.60927 4.20543 -2.01585
lowerneck -6.12698 -8.83954 -1.8762
upperneck -1.60476 -11.6571 5.4961
head 0.992482 -5.71651 1.68562
lclavicle -1.30646e-14 -2.60187e-14 0
lhumerus -52.5859 -13.1104 78.1528
lradius 57.042 0 0
lwrist 14.7681 0 0
lhand -28.0342 -7.20232 0
lfingers 7.12502 0 0
lthumb -1.41894 22.7546 0
rclavicle -1.30646e-14 -2.60187e-14 0
rhumerus 4.56485 41.7664 -82.6596
rradius 88.2558 0 0
rwrist 1.95328 0 0
rhand -20.7868 -21.3546 0
rfingers 7.12502 0 0
rthumb 5.57885 -771.185 0
751
root 3.80983 16.7347 15.0586 -173.825 2.81122 180.346
lfemur -37.4916 10.9671 -20.1826
ltibia 48.8347 0 0
lfoot -23.8339 5.14004 0
ltoes 12.8828 0 0
rfemur -25.0116 -32.7685 14.7876
rtibia 99.9497 0 0
rfoot 21.5177 -0.815482 0
rtoes 30.2248 0 0
lowerback 3.05416 6.17883 -2.93425
upperback -0.984365 8.11142 -3.10258
thorax -2.63833 4.10058 -1.97793
lowerneck -5.96331 -8.91096 -1.9201
upperneck -1.59029 -11.7397 5.69106
head 0.987755 -5.74902 1.75671
lclavicle -1.74383e-14 -2.29443e-14 0
lhumerus -51.9855 -12.7104 80.2976
lradius 57.698 0 0
lwrist 14.3394 0 0
lhand -28.4393 -7.41144 0
lfingers 7.12502 0 0
lthumb -1.81014 22.5468 0
rclavicle -1.74383e-14 -2.29443e-14 0
rhumerus 1.74202 44.0417 -85.6014
rradius 88.0984 0 0
rwrist 2.7015 0 0
rhand -20.0979 -20.6545 0
rfingers 7.12502 0 0
rthumb 6.24407 -770.477 0
752
root 3.75915 16.5928 15.2446 -173.141 5.33268 180.551
lfemur -38.715 12.8075 -21.197
ltibia 51.5024 0 0
lfoot -26.0317 6.58284 0
ltoes 12.634 0 0
rfemur -24.8916 -32.7043 16.3853
rtibia 97.5996 0 0
rfoot 20.3586 -1.9011 0
rtoes 29.926 0 0
lowerback 3.28246 6.02276 -3.23893
upperback -0.856249 7.89452 -3.22505
thorax -2.66274 3.99954 -1.94606
lowerneck -5.80835 -8.97276 -1.95891
upperneck -1.57973 -11.8102 5.87343
head 0.981698 -5.77618 1.82319
lclavicle -2.13252e-14 -2.00179e-14 0
lhumerus -51.4273 -12.3339 82.3357
lradius 58.3435 0 0
lwrist 13.9322 0 0
lhand -28.7975 -7.60325 0
lfingers 7.12502 0 0
lthumb -2.15614 22.3561 0
rclavicle -2.13252e-14 -2.00179e-14 0
rhumerus -0.980831 46.1794 -88.4149
rradius 87.9324 0 0
rwrist 3.41039 0 0
rhand -19.4605 -19.9978 0
rfingers 7.12502 0 0
rthumb 6.85954 -769.813 0
753
root 3.70847 16.4509 15.4307 -172.103 7.89034 181.155
lfemur -39.8397 14.5162 -22.1176
ltibia 53.9516 0 0
lfoot -28.0438 7.95547 0
ltoes 12.4285 0 0
rfemur -24.7526 -32.6263 17.8716
rtibia 95.3075 0 0
rfoot 19.1753 -2.99672 0
rtoes 29.4898 0 0
lowerback 3.48521 5.87609 -3.51299
upperback -0.739286 7.69123 -3.34
thorax -2.68121 3.90458 -1.92167
lowerneck -5.66436 -9.02365 -1.99149
upperneck -1.57398 -11.8671 6.0402
head 0.974089 -5.79733 1.88392
lclavicle -2.46327e-14 -1.7295e-14 0
lhumerus -50.9321 -11.9855 84.25
lradius 58.9748 0 0
lwrist 13.5508 0 0
lhand -29.1009 -7.77467 0
lfingers 7.12502 0 0
lthumb -2.44916 22.1855 0
rclavicle -2.46327e-14 -1.7295e-14 0
rhumerus -3.56586 48.1533 -91.0725
rradius 87.7555 0 0
rwrist 4.07158 0 0
rhand -18.8856 -19.393 0
rfingers 7.12502 0 0
rthumb 7.41477 -769.201 0
